<svg width="52" height="52" viewBox="0 0 52 52" fill="none" xmlns="http://www.w3.org/2000/svg">
<rect width="52" height="52" rx="26" fill="black"/>
<path d="M26 12.883C30.2721 12.883 30.7781 12.8993 32.4653 12.9761C34.0252 13.0474 34.8725 13.308 35.4364 13.5271C36.1831 13.8174 36.7161 14.1641 37.276 14.724C37.836 15.2839 38.1826 15.8169 38.4729 16.5636C38.692 17.1275 38.9526 17.9748 39.0239 19.5346C39.1007 21.2219 39.117 21.7279 39.117 26C39.117 30.2723 39.1007 30.7783 39.0239 32.4654C38.9526 34.0254 38.692 34.8725 38.4729 35.4364C38.1826 36.1831 37.8359 36.7162 37.276 37.2761C36.7161 37.836 36.1831 38.1828 35.4364 38.4729C34.8725 38.692 34.0252 38.9527 32.4653 39.0239C30.7784 39.1009 30.2724 39.1171 26 39.1171C21.7275 39.1171 21.2215 39.1009 19.5346 39.0239C17.9746 38.9526 17.1275 38.692 16.5636 38.4729C15.8169 38.1828 15.2838 37.836 14.7239 37.2761C14.164 36.7161 13.8172 36.1831 13.5271 35.4364C13.308 34.8726 13.0473 34.0254 12.9761 32.4654C12.8991 30.7783 12.8829 30.2723 12.8829 26C12.8829 21.7279 12.8991 21.2219 12.9761 19.5347C13.0474 17.9748 13.308 17.1275 13.5271 16.5636C13.8172 15.8169 14.164 15.2839 14.7239 14.724C15.2839 14.164 15.8169 13.8174 16.5636 13.5271C17.1274 13.308 17.9746 13.0474 19.5346 12.9761C21.2218 12.8993 21.7277 12.883 26 12.883M26 10C21.6546 10 21.1097 10.0184 19.4032 10.0962C17.7001 10.174 16.537 10.4445 15.5194 10.84C14.4671 11.2489 13.5749 11.796 12.6854 12.6855C11.7959 13.575 11.2489 14.4672 10.84 15.5194C10.4444 16.5371 10.174 17.7002 10.0962 19.4032C10.0184 21.1097 10 21.6546 10 26C10 30.3454 10.0184 30.8903 10.0962 32.5968C10.174 34.2999 10.4444 35.463 10.84 36.4806C11.2487 37.5328 11.7959 38.4251 12.6854 39.3146C13.5749 40.2041 14.4671 40.7511 15.5194 41.16C16.5371 41.5556 17.7001 41.826 19.4031 41.9037C21.1097 41.9816 21.6546 42 26 42C30.3454 42 30.8903 41.9816 32.5968 41.9037C34.2998 41.826 35.4629 41.5556 36.4805 41.16C37.5327 40.7512 38.425 40.2041 39.3145 39.3146C40.204 38.4251 40.7511 37.5329 41.16 36.4806C41.5555 35.4629 41.826 34.2999 41.9037 32.5969C41.9816 30.8902 42 30.3454 42 26C42 21.6546 41.9816 21.1097 41.9037 19.4032C41.826 17.7002 41.5555 16.5371 41.16 15.5195C40.7511 14.4672 40.204 13.575 39.3145 12.6855C38.425 11.796 37.5328 11.2487 36.4806 10.84C35.4629 10.4445 34.2998 10.174 32.5968 10.0962C30.8903 10.0184 30.3454 10 26 10ZM26 17.7838C21.4623 17.7838 17.7838 21.4625 17.7838 26C17.7838 30.5377 21.4623 34.2162 26 34.2162C30.5376 34.2162 34.2162 30.5377 34.2162 26C34.2162 21.4624 30.5376 17.7838 26 17.7838V17.7838ZM26 31.3334C23.0545 31.3334 20.6666 28.9455 20.6666 26C20.6666 23.0545 23.0545 20.6666 26 20.6666C28.9455 20.6666 31.3334 23.0545 31.3334 26C31.3334 28.9455 28.9455 31.3334 26 31.3334ZM36.4608 17.4591C36.4608 18.5196 35.6013 19.3791 34.5408 19.3791C33.4804 19.3791 32.6208 18.5196 32.6208 17.4591C32.6208 16.3988 33.4804 15.5391 34.5408 15.5391C35.6013 15.5391 36.4608 16.3988 36.4608 17.4591V17.4591Z" fill="white"/>
</svg>
