<svg width="52" height="52" viewBox="0 0 52 52" fill="none" xmlns="http://www.w3.org/2000/svg">
<rect x="0.138" width="51.8399" height="52" rx="25.92" fill="black"/>
<path d="M37.3379 14.6561C35.871 13.1744 34.1238 11.9996 32.1982 11.2002C30.2725 10.4008 28.2069 9.99283 26.122 10.0001C17.386 10.0001 10.266 17.1201 10.266 25.856C10.266 28.656 11.002 31.376 12.378 33.776L10.138 42L18.538 39.792C20.858 41.056 23.466 41.728 26.122 41.728C34.8579 41.728 41.9779 34.608 41.9779 25.872C41.9779 21.6321 40.3299 17.6481 37.3379 14.6561V14.6561ZM26.122 39.04C23.754 39.04 21.434 38.4 19.402 37.2L18.922 36.912L13.93 38.224L15.258 33.36L14.938 32.864C13.6224 30.7632 12.9238 28.3348 12.922 25.856C12.922 18.5921 18.842 12.6721 26.106 12.6721C29.6259 12.6721 32.9379 14.0481 35.4179 16.5441C36.6459 17.7664 37.619 19.2203 38.2809 20.8215C38.9429 22.4228 39.2804 24.1394 39.2739 25.872C39.3059 33.136 33.3859 39.04 26.122 39.04V39.04ZM33.3539 29.184C32.9539 28.992 31.0019 28.032 30.6499 27.888C30.2819 27.76 30.0259 27.696 29.7539 28.08C29.4819 28.48 28.7299 29.376 28.5059 29.632C28.2819 29.904 28.0419 29.936 27.6419 29.728C27.2419 29.536 25.962 29.104 24.458 27.76C23.274 26.704 22.49 25.408 22.25 25.0081C22.026 24.6081 22.218 24.4001 22.426 24.1921C22.602 24.0161 22.826 23.7281 23.018 23.5041C23.21 23.2801 23.29 23.1041 23.418 22.8481C23.546 22.5761 23.482 22.3521 23.386 22.1601C23.29 21.9681 22.49 20.0161 22.17 19.2161C21.85 18.4481 21.514 18.5441 21.274 18.5281H20.506C20.234 18.5281 19.818 18.6241 19.45 19.0241C19.098 19.4241 18.074 20.3841 18.074 22.3361C18.074 24.2881 19.498 26.176 19.69 26.432C19.882 26.704 22.49 30.704 26.458 32.416C27.4019 32.832 28.1379 33.072 28.7139 33.248C29.6579 33.552 30.5219 33.504 31.2099 33.408C31.9779 33.296 33.5619 32.448 33.8819 31.52C34.2179 30.592 34.2179 29.808 34.1059 29.632C33.9939 29.456 33.7539 29.376 33.3539 29.184V29.184Z" fill="white"/>
</svg>
