<svg width="32" height="32" viewBox="0 0 32 32" fill="none" xmlns="http://www.w3.org/2000/svg">
<path d="M27.3379 4.65608C25.871 3.17437 24.1238 1.99956 22.1981 1.20017C20.2724 0.400789 18.2069 -0.00716816 16.1219 9.53111e-05C7.38592 9.53111e-05 0.265939 7.12007 0.265939 15.856C0.265939 18.656 1.00194 21.376 2.37793 23.776L0.137939 32L8.53791 29.792C10.8579 31.056 13.4659 31.728 16.1219 31.728C24.8579 31.728 31.9778 24.608 31.9778 15.872C31.9778 11.6321 30.3298 7.64807 27.3379 4.65608ZM16.1219 29.04C13.7539 29.04 11.4339 28.4 9.40191 27.2L8.92191 26.912L3.92993 28.224L5.25792 23.36L4.93793 22.864C3.62232 20.7632 2.92376 18.3348 2.92193 15.856C2.92193 8.59207 8.84191 2.67209 16.1059 2.67209C19.6259 2.67209 22.9379 4.04808 25.4179 6.54408C26.6458 7.76641 27.619 9.22033 28.2809 10.8215C28.9428 12.4228 29.2803 14.1394 29.2739 15.872C29.3059 23.136 23.3859 29.04 16.1219 29.04ZM23.3539 19.184C22.9539 18.992 21.0019 18.032 20.6499 17.888C20.2819 17.76 20.0259 17.696 19.7539 18.08C19.4819 18.48 18.7299 19.376 18.5059 19.632C18.2819 19.904 18.0419 19.936 17.6419 19.728C17.2419 19.536 15.9619 19.104 14.4579 17.76C13.2739 16.704 12.4899 15.408 12.2499 15.008C12.0259 14.6081 12.2179 14.4001 12.4259 14.1921C12.6019 14.0161 12.8259 13.7281 13.0179 13.5041C13.2099 13.2801 13.2899 13.1041 13.4179 12.8481C13.5459 12.5761 13.4819 12.3521 13.3859 12.1601C13.2899 11.9681 12.4899 10.0161 12.1699 9.21607C11.8499 8.44807 11.5139 8.54407 11.2739 8.52807H10.5059C10.2339 8.52807 9.81791 8.62407 9.44991 9.02407C9.09791 9.42407 8.07392 10.3841 8.07392 12.3361C8.07392 14.2881 9.49791 16.176 9.68991 16.432C9.88191 16.704 12.4899 20.704 16.4579 22.416C17.4019 22.832 18.1379 23.072 18.7139 23.248C19.6579 23.552 20.5219 23.504 21.2099 23.408C21.9779 23.296 23.5619 22.448 23.8819 21.52C24.2179 20.592 24.2179 19.808 24.1059 19.632C23.9939 19.456 23.7539 19.376 23.3539 19.184Z" fill="white"/>
</svg>
