<svg width="230" height="20" viewBox="0 0 230 20" fill="none" xmlns="http://www.w3.org/2000/svg">
<path d="M10.6915 0.757721L15.1759 13.1719C15.3582 13.7188 15.5132 14.1745 15.6408 14.5391C15.7866 14.9037 15.9051 15.2136 15.9962 15.4688C16.1056 15.724 16.1968 15.9428 16.2697 16.1251C16.3426 16.2891 16.4064 16.435 16.4611 16.5626C16.6616 17.0183 16.8621 17.3738 17.0627 17.629C17.2814 17.866 17.5002 18.0482 17.7189 18.1759C17.9377 18.2852 18.1564 18.349 18.3752 18.3673C18.6122 18.3855 18.8491 18.3946 19.0861 18.3946L19.2228 18.504L19.3049 18.9962L19.2502 19.1055C19.1226 19.1055 18.9312 19.0964 18.676 19.0782C18.4207 19.06 18.1564 19.0417 17.883 19.0235C17.6095 19.0053 17.3452 18.9871 17.09 18.9688C16.853 18.9506 16.6707 18.9415 16.5431 18.9415H15.6408C15.5132 18.9415 15.3035 18.9506 15.0119 18.9688C14.7202 18.9871 14.4103 19.0053 14.0822 19.0235C13.7723 19.0417 13.4715 19.06 13.1798 19.0782C12.8881 19.0964 12.6785 19.1055 12.5509 19.1055L12.4962 18.9962L12.5782 18.504L12.6876 18.3946C13.2163 18.3946 13.6264 18.3399 13.9181 18.2305C14.2098 18.1029 14.3556 17.7748 14.3556 17.2462C14.3556 16.8269 14.2098 16.2435 13.9181 15.4961C13.6447 14.7305 13.2983 13.7735 12.879 12.625L12.4142 11.3125H6.28912L5.82427 12.625C5.405 13.7735 5.04953 14.7305 4.75786 15.4961C4.48442 16.2435 4.3477 16.8269 4.3477 17.2462C4.3477 17.7748 4.49353 18.1029 4.7852 18.2305C5.07687 18.3399 5.48703 18.3946 6.01568 18.3946L6.1524 18.504L6.23443 18.9962L6.17974 19.1055C6.05214 19.1055 5.85162 19.0964 5.57818 19.0782C5.30474 19.06 5.01307 19.0417 4.70317 19.0235C4.4115 19.0053 4.12894 18.9871 3.8555 18.9688C3.58206 18.9506 3.38154 18.9415 3.25394 18.9415H2.7344C2.60679 18.9415 2.41539 18.9506 2.16018 18.9688C1.90497 18.9871 1.64064 19.0053 1.3672 19.0235C1.09376 19.0417 0.829435 19.06 0.574224 19.0782C0.337243 19.0964 0.154949 19.1055 0.027344 19.1055L0 18.9962L0.054688 18.504L0.191408 18.3946C0.428389 18.3946 0.656256 18.3855 0.875008 18.3673C1.09376 18.349 1.31251 18.2852 1.53126 18.1759C1.75002 18.0482 1.95965 17.866 2.16018 17.629C2.37893 17.3738 2.59768 17.0183 2.81643 16.5626C2.87112 16.4714 2.91669 16.3711 2.95315 16.2618C3.00784 16.1342 3.08076 15.9519 3.1719 15.7149C3.28128 15.4779 3.40889 15.168 3.55472 14.7852C3.71878 14.3841 3.91931 13.8737 4.15629 13.2539C4.4115 12.6159 4.71228 11.8412 5.05864 10.9297C5.42323 10.0182 5.86073 8.91535 6.37115 7.62107C6.60813 6.98304 6.85423 6.35413 7.10944 5.73433C7.36465 5.0963 7.60163 4.50385 7.82038 3.95697C8.03914 3.41009 8.23055 2.92701 8.39461 2.50774C8.5769 2.08846 8.70451 1.77856 8.77742 1.57804L10.3907 0.757721H10.6915ZM6.75397 10.1367H11.9767L9.37899 3.1093L6.75397 10.1367Z" fill="#F2C94C"/>
<path d="M44.5107 19.1055C44.3831 19.1055 44.1735 19.0964 43.8818 19.0782C43.5901 19.06 43.2893 19.0417 42.9794 19.0235C42.6695 19.0053 42.3688 18.9871 42.0771 18.9688C41.7854 18.9506 41.5758 18.9415 41.4482 18.9415H40.9286C40.801 18.9415 40.5914 18.9506 40.2997 18.9688C40.008 18.9871 39.7073 19.0053 39.3974 19.0235C39.0875 19.0417 38.7867 19.06 38.495 19.0782C38.2033 19.0964 37.9937 19.1055 37.8661 19.1055L37.7841 18.9962L37.8661 18.504L37.9755 18.3946C38.2671 18.3946 38.5406 18.3855 38.7958 18.3673C39.0692 18.3308 39.2789 18.2488 39.4247 18.1212C39.5523 17.9936 39.6708 17.8295 39.7802 17.629C39.9078 17.4284 39.9716 17.073 39.9716 16.5626C39.9716 16.435 39.9716 16.2891 39.9716 16.1251C39.9716 15.9428 39.9625 15.724 39.9442 15.4688C39.9442 15.2136 39.9351 14.9037 39.9169 14.5391C39.8987 14.1745 39.8713 13.7188 39.8349 13.1719C39.689 11.2578 39.5705 9.73567 39.4794 8.60545C39.4065 7.457 39.3427 6.56377 39.288 5.92574C39.2333 5.28771 39.1877 4.83198 39.1513 4.55854C39.133 4.2851 39.1148 4.05723 39.0966 3.87494C38.969 4.20307 38.7685 4.71349 38.495 5.4062C38.2216 6.08069 37.9026 6.86455 37.538 7.75779C37.1916 8.63279 36.8179 9.5716 36.4169 10.5742C36.0158 11.5768 35.6148 12.5703 35.2137 13.5547C34.8309 14.5391 34.4572 15.4688 34.0926 16.3438C33.7463 17.2188 33.4455 17.9662 33.1903 18.586H31.9051L26.4363 3.92963C26.4181 4.11192 26.3999 4.30333 26.3816 4.50385C26.3634 4.70437 26.3452 4.95047 26.3269 5.24214C26.3087 5.51558 26.2814 5.84371 26.2449 6.22652C26.2267 6.59111 26.1993 7.04684 26.1629 7.59372L25.7801 12.625C25.7254 13.2448 25.6889 13.7552 25.6707 14.1563C25.6524 14.5573 25.6342 14.9037 25.616 15.1954C25.5978 15.487 25.5886 15.7331 25.5886 15.9336C25.5886 16.1342 25.5886 16.3438 25.5886 16.5626C25.5886 17.073 25.6433 17.4284 25.7527 17.629C25.8803 17.8295 26.017 17.9936 26.1629 18.1212C26.3087 18.2488 26.4728 18.3308 26.6551 18.3673C26.8556 18.3855 27.1017 18.3946 27.3933 18.3946L27.5027 18.504L27.5848 18.9962L27.5301 19.1055C27.4025 19.1055 27.2111 19.0964 26.9558 19.0782C26.7189 19.06 26.4728 19.0417 26.2176 19.0235C25.9623 19.0053 25.7071 18.9871 25.4519 18.9688C25.2149 18.9506 25.0326 18.9415 24.905 18.9415H24.3855C24.2579 18.9415 24.0483 18.9506 23.7566 18.9688C23.4832 18.9871 23.1824 19.0053 22.8542 19.0235C22.5443 19.0417 22.2436 19.06 21.9519 19.0782C21.6785 19.0964 21.4779 19.1055 21.3503 19.1055L21.2956 18.9962L21.3777 18.504L21.5417 18.3946C21.8152 18.3946 22.0795 18.3855 22.3347 18.3673C22.5899 18.3308 22.8087 18.2488 22.991 18.1212C23.1368 17.9936 23.2826 17.8295 23.4285 17.629C23.5925 17.4284 23.711 17.073 23.7839 16.5626C23.8022 16.435 23.8204 16.2891 23.8386 16.1251C23.8569 15.9428 23.8751 15.724 23.8933 15.4688C23.9298 15.2136 23.9662 14.9037 24.0027 14.5391C24.0392 14.1745 24.0756 13.7188 24.1121 13.1719L24.4949 7.62107C24.5496 6.98304 24.586 6.44527 24.6043 6.00777C24.6407 5.57027 24.6589 5.19656 24.6589 4.88667C24.6772 4.57677 24.6863 4.31244 24.6863 4.09369C24.7045 3.87494 24.7136 3.65619 24.7136 3.43743C24.7136 2.92701 24.6316 2.57154 24.4675 2.37102C24.3217 2.15227 24.1759 1.9882 24.03 1.87883C23.866 1.75122 23.6563 1.6783 23.4011 1.66007C23.1459 1.62361 22.8725 1.60539 22.5808 1.60539L22.4441 1.49601L22.3621 1.00382L22.4167 0.894441C22.5443 0.894441 22.754 0.903555 23.0457 0.921784C23.3373 0.940014 23.6381 0.958243 23.948 0.976473C24.2579 0.994703 24.5587 1.01293 24.8504 1.03116C25.142 1.04939 25.3517 1.0585 25.4793 1.0585H26.4363C26.5821 1.0585 26.7827 1.04939 27.0379 1.03116C27.3113 1.01293 27.5301 0.985587 27.6941 0.949128L27.8309 1.03116C27.8491 1.26814 27.9129 1.58716 28.0223 1.9882C28.1499 2.37102 28.2957 2.80852 28.4598 3.30071C28.6421 3.79291 28.8335 4.32156 29.034 4.88667C29.2345 5.43355 29.435 5.98043 29.6356 6.52731L31.4949 11.5859C31.8048 12.461 32.0874 13.2084 32.3426 13.8282C32.5978 14.4297 32.8257 14.9675 33.0262 15.4415C33.0809 15.3503 33.2359 15.0039 33.4911 14.4024C33.7463 13.7826 34.0562 13.0261 34.4208 12.1328C34.8036 11.2214 35.2046 10.2279 35.6239 9.15233C36.0432 8.0768 36.4442 7.02861 36.827 6.00777C37.2098 4.9687 37.538 4.01166 37.8114 3.13665C38.0849 2.26164 38.258 1.56893 38.331 1.0585L38.4677 0.949128C38.6135 0.985587 38.7685 1.01293 38.9325 1.03116C39.0966 1.04939 39.2515 1.0585 39.3974 1.0585H40.3817C40.5094 1.0585 40.719 1.04939 41.0107 1.03116C41.3023 1.01293 41.6031 0.994703 41.913 0.976473C42.2229 0.958243 42.5237 0.940014 42.8154 0.921784C43.107 0.903555 43.3167 0.894441 43.4443 0.894441L43.499 1.00382L43.4169 1.49601L43.2802 1.60539C42.9885 1.60539 42.706 1.62361 42.4326 1.66007C42.1773 1.6783 41.9768 1.75122 41.831 1.87883C41.6852 1.9882 41.5302 2.15227 41.3661 2.37102C41.2203 2.58977 41.1474 2.94524 41.1474 3.43743C41.1474 3.69264 41.1474 3.92963 41.1474 4.14838C41.1656 4.36713 41.1747 4.62234 41.1747 4.91401C41.193 5.20568 41.2112 5.56115 41.2294 5.98042C41.2659 6.3997 41.3114 6.93747 41.3661 7.59372L41.6943 12.625C41.749 13.2813 41.7854 13.819 41.8036 14.2383C41.8401 14.6394 41.8674 14.9766 41.8857 15.25C41.9221 15.5235 41.9495 15.7605 41.9677 15.961C42.0042 16.1433 42.0406 16.3438 42.0771 16.5626C42.15 17.073 42.2594 17.4284 42.4052 17.629C42.551 17.8295 42.6969 17.9936 42.8427 18.1212C43.0068 18.2488 43.2164 18.3308 43.4716 18.3673C43.7451 18.3855 44.0276 18.3946 44.3193 18.3946L44.456 18.504L44.538 18.9962L44.5107 19.1055Z" fill="#F2C94C"/>
<path d="M57.0716 0.757721L61.556 13.1719C61.7383 13.7188 61.8933 14.1745 62.0209 14.5391C62.1667 14.9037 62.2852 15.2136 62.3764 15.4688C62.4857 15.724 62.5769 15.9428 62.6498 16.1251C62.7227 16.2891 62.7865 16.435 62.8412 16.5626C63.0417 17.0183 63.2423 17.3738 63.4428 17.629C63.6615 17.866 63.8803 18.0482 64.099 18.1759C64.3178 18.2852 64.5365 18.349 64.7553 18.3673C64.9923 18.3855 65.2293 18.3946 65.4662 18.3946L65.603 18.504L65.685 18.9962L65.6303 19.1055C65.5027 19.1055 65.3113 19.0964 65.0561 19.0782C64.8009 19.06 64.5365 19.0417 64.2631 19.0235C63.9897 19.0053 63.7253 18.9871 63.4701 18.9688C63.2331 18.9506 63.0509 18.9415 62.9232 18.9415H62.0209C61.8933 18.9415 61.6837 18.9506 61.392 18.9688C61.1003 18.9871 60.7904 19.0053 60.4623 19.0235C60.1524 19.0417 59.8516 19.06 59.5599 19.0782C59.2683 19.0964 59.0586 19.1055 58.931 19.1055L58.8763 18.9962L58.9584 18.504L59.0677 18.3946C59.5964 18.3946 60.0066 18.3399 60.2982 18.2305C60.5899 18.1029 60.7357 17.7748 60.7357 17.2462C60.7357 16.8269 60.5899 16.2435 60.2982 15.4961C60.0248 14.7305 59.6784 13.7735 59.2592 12.625L58.7943 11.3125H52.6692L52.2044 12.625C51.7851 13.7735 51.4297 14.7305 51.138 15.4961C50.8645 16.2435 50.7278 16.8269 50.7278 17.2462C50.7278 17.7748 50.8737 18.1029 51.1653 18.2305C51.457 18.3399 51.8672 18.3946 52.3958 18.3946L52.5325 18.504L52.6146 18.9962L52.5599 19.1055C52.4323 19.1055 52.2317 19.0964 51.9583 19.0782C51.6849 19.06 51.3932 19.0417 51.0833 19.0235C50.7916 19.0053 50.5091 18.9871 50.2356 18.9688C49.9622 18.9506 49.7617 18.9415 49.6341 18.9415H49.1145C48.9869 18.9415 48.7955 18.9506 48.5403 18.9688C48.2851 18.9871 48.0208 19.0053 47.7473 19.0235C47.4739 19.0417 47.2096 19.06 46.9544 19.0782C46.7174 19.0964 46.5351 19.1055 46.4075 19.1055L46.3801 18.9962L46.4348 18.504L46.5715 18.3946C46.8085 18.3946 47.0364 18.3855 47.2551 18.3673C47.4739 18.349 47.6926 18.2852 47.9114 18.1759C48.1301 18.0482 48.3398 17.866 48.5403 17.629C48.7591 17.3738 48.9778 17.0183 49.1966 16.5626C49.2512 16.4714 49.2968 16.3711 49.3333 16.2618C49.388 16.1342 49.4609 15.9519 49.552 15.7149C49.6614 15.4779 49.789 15.168 49.9348 14.7852C50.0989 14.3841 50.2994 13.8737 50.5364 13.2539C50.7916 12.6159 51.0924 11.8412 51.4388 10.9297C51.8034 10.0182 52.2409 8.91535 52.7513 7.62107C52.9883 6.98304 53.2344 6.35413 53.4896 5.73433C53.7448 5.0963 53.9818 4.50385 54.2005 3.95697C54.4193 3.41009 54.6107 2.92701 54.7747 2.50774C54.957 2.08846 55.0846 1.77856 55.1576 1.57804L56.7709 0.757721H57.0716ZM53.1341 10.1367H58.3568L55.7591 3.1093L53.1341 10.1367Z" fill="#F2C94C"/>
<path d="M68.5234 4.01166L68.9609 1.0585L69.1797 0.839752C71.4948 0.949129 73.4271 1.01293 74.9766 1.03116C76.5443 1.04939 77.5652 1.0585 78.0391 1.0585H79.8438C79.9532 1.0585 80.0991 1.0585 80.2813 1.0585C80.4819 1.04028 80.6824 1.02205 80.8829 1.00382C81.1017 0.985588 81.3113 0.967358 81.5118 0.949128C81.7306 0.91267 81.922 0.876211 82.0861 0.839752L82.3048 1.14054L82.1681 1.82414C81.84 2.17049 81.366 2.74472 80.7462 3.54681C80.1264 4.3489 79.4428 5.26948 78.6954 6.30855C77.948 7.3294 77.1824 8.42316 76.3985 9.58983C75.6146 10.7565 74.8855 11.8685 74.211 12.9258C73.5365 13.9649 72.9623 14.9037 72.4883 15.7422C72.0143 16.5626 71.7136 17.1641 71.586 17.5469L71.7227 17.629H73.9102C75.5326 17.629 76.8269 17.6199 77.793 17.6016C78.7592 17.5652 79.5066 17.474 80.0352 17.3282C80.5639 17.1824 80.9376 16.9727 81.1564 16.6993C81.3751 16.4076 81.5483 15.9974 81.6759 15.4688L81.84 15.3047H82.5782L82.0861 18.8321L81.84 19.1055C81.767 19.1055 81.5756 19.0964 81.2657 19.0782C80.9558 19.0782 80.5912 19.0691 80.172 19.0509C79.7527 19.0326 79.297 19.0144 78.8048 18.9962C78.3308 18.9962 77.866 18.9871 77.4102 18.9688C76.9727 18.9688 76.5717 18.9597 76.2071 18.9415C75.8607 18.9415 75.6055 18.9415 75.4415 18.9415H71.0664C70.6654 18.9415 70.2096 18.9597 69.6992 18.9962C69.207 19.0326 68.7239 19.0691 68.25 19.1055L67.9765 18.8048V18.1759C68.3411 17.8113 68.8151 17.2553 69.3984 16.5079C70 15.7605 70.6471 14.9037 71.3399 13.9375C72.0326 12.9714 72.7435 11.9414 73.4727 10.8477C74.2019 9.7539 74.8946 8.68748 75.5508 7.64841C76.2071 6.60934 76.7904 5.64318 77.3008 4.74994C77.8295 3.83848 78.2214 3.09108 78.4766 2.50774L78.3399 2.37102H74.4571C73.4362 2.37102 72.6068 2.38925 71.9688 2.4257C71.349 2.44393 70.8568 2.50774 70.4922 2.61711C70.1276 2.72649 69.8633 2.89967 69.6992 3.13665C69.5352 3.3554 69.4167 3.6653 69.3437 4.06635L69.1797 4.20307H68.6875L68.5234 4.01166Z" fill="#F2C94C"/>
<path d="M93.3588 1.00382L93.2768 1.49601L93.1674 1.60539C92.8758 1.60539 92.5932 1.62361 92.3198 1.66007C92.0645 1.6783 91.8549 1.75122 91.6908 1.87883C91.545 2.00643 91.4083 2.17049 91.2807 2.37102C91.1531 2.57154 91.071 2.92701 91.0346 3.43743C91.0164 3.69264 90.9981 3.92963 90.9799 4.14838C90.9799 4.36713 90.9708 4.62234 90.9526 4.91401C90.9526 5.20568 90.9526 5.56115 90.9526 5.98042C90.9526 6.3997 90.9526 6.93747 90.9526 7.59372V12.625C90.9526 13.2813 90.9526 13.819 90.9526 14.2383C90.9526 14.6394 90.9526 14.9766 90.9526 15.25C90.9708 15.5235 90.9799 15.7605 90.9799 15.961C90.9981 16.1433 91.0164 16.3438 91.0346 16.5626C91.071 17.073 91.1531 17.4284 91.2807 17.629C91.4083 17.8295 91.545 17.9936 91.6908 18.1212C91.8549 18.2488 92.0645 18.3308 92.3198 18.3673C92.5932 18.3855 92.8758 18.3946 93.1674 18.3946L93.2768 18.504L93.3588 18.9962L93.3041 19.1055C93.1765 19.1055 92.9669 19.0964 92.6752 19.0782C92.3836 19.06 92.0828 19.0417 91.7729 19.0235C91.463 19.0053 91.1622 18.9871 90.8705 18.9688C90.5789 18.9506 90.3692 18.9415 90.2416 18.9415L90.0073 16.2663C89.8797 16.2663 89.3848 18.9506 89.0932 18.9688C88.8015 18.9871 88.5007 19.0053 88.1908 19.0235C87.8809 19.0417 87.5801 19.06 87.2885 19.0782C86.9968 19.0964 86.7872 19.1055 86.6596 19.1055L86.6049 18.9962L86.6869 18.504L86.8236 18.3946C87.1153 18.3946 87.3887 18.3855 87.6439 18.3673C87.8991 18.3308 88.1088 18.2488 88.2729 18.1212C88.4187 17.9936 88.5554 17.8295 88.683 17.629C88.8288 17.4284 88.92 17.073 88.9565 16.5626C88.9565 16.435 88.9565 16.2891 88.9565 16.1251C88.9747 15.9428 88.9838 15.724 88.9838 15.4688C89.002 15.2136 89.0111 14.9037 89.0111 14.5391C89.0111 14.1745 89.0111 13.7188 89.0111 13.1719V7.62107C89.0111 6.98304 89.0111 6.44527 89.0111 6.00777C89.0111 5.57027 89.002 5.19656 88.9838 4.88667C88.9838 4.57677 88.9747 4.31244 88.9565 4.09369C88.9565 3.87494 88.9473 3.65619 88.9291 3.43743C88.8926 2.96347 88.8106 2.61711 88.683 2.39836C88.5554 2.17961 88.4187 2.00643 88.2729 1.87883C88.1088 1.75122 87.8991 1.6783 87.6439 1.66007C87.3887 1.62361 87.1153 1.60539 86.8236 1.60539L86.6869 1.49601L86.6049 1.00382L86.6596 0.894441C86.7872 0.894441 86.9968 0.903555 87.2885 0.921784C87.5801 0.940014 87.8809 0.958243 88.1908 0.976473C88.5007 0.994703 88.8015 1.01293 89.0932 1.03116C89.3848 1.04939 89.5945 1.0585 89.7221 1.0585H90.2416C90.3692 1.0585 90.5789 1.04939 90.8705 1.03116C91.1622 1.01293 91.463 0.994703 91.7729 0.976473C92.0828 0.958243 92.3836 0.940014 92.6752 0.921784C92.9669 0.903555 93.1765 0.894441 93.3041 0.894441L93.3588 1.00382Z" fill="#F2C94C"/>
<path d="M115.535 1.00382L115.48 1.49601L115.344 1.60539C115.052 1.60539 114.769 1.62361 114.496 1.66007C114.241 1.6783 114.04 1.75122 113.894 1.87883C113.749 2.00643 113.612 2.17049 113.484 2.37102C113.375 2.57154 113.302 2.92701 113.265 3.43743C113.247 3.69264 113.229 3.92963 113.211 4.14838C113.211 4.36713 113.202 4.62234 113.183 4.91401C113.183 5.20568 113.183 5.56115 113.183 5.98042C113.183 6.3997 113.183 6.93747 113.183 7.59372V12.4063C113.183 13.4271 113.183 14.2657 113.183 14.9219C113.202 15.5782 113.211 16.1433 113.211 16.6172C113.229 17.073 113.247 17.4831 113.265 17.8477C113.302 18.2123 113.338 18.6134 113.375 19.0509L113.156 19.1876L111.461 19.0782L111.187 18.7501L101.453 4.17572C101.453 4.35801 101.444 4.54031 101.426 4.7226C101.426 4.90489 101.426 5.13276 101.426 5.4062C101.426 5.66141 101.426 5.9622 101.426 6.30855C101.426 6.65491 101.426 7.0833 101.426 7.59372V12.625C101.426 12.8438 101.426 13.1354 101.426 13.5C101.426 13.8464 101.426 14.211 101.426 14.5938C101.444 14.9766 101.453 15.3503 101.453 15.7149C101.471 16.0612 101.489 16.3438 101.508 16.5626C101.544 17.0183 101.617 17.3646 101.726 17.6016C101.854 17.8204 102.009 17.9936 102.191 18.1212C102.337 18.2305 102.528 18.3035 102.765 18.3399C103.002 18.3764 103.303 18.3946 103.668 18.3946L103.804 18.504L103.886 18.9962L103.832 19.1055C103.704 19.1055 103.504 19.0964 103.23 19.0782C102.975 19.06 102.702 19.0417 102.41 19.0235C102.118 19.0053 101.836 18.9871 101.562 18.9688C101.307 18.9506 101.116 18.9415 100.988 18.9415L100.458 17.6837C100.331 17.6837 100.131 18.9506 99.8396 18.9688C99.5479 18.9871 99.2471 19.0053 98.9372 19.0235C98.6273 19.0417 98.3265 19.06 98.0349 19.0782C97.7432 19.0964 97.5336 19.1055 97.406 19.1055L97.3513 18.9962L97.4333 18.504L97.57 18.3946C97.8981 18.3946 98.1716 18.3855 98.3903 18.3673C98.6273 18.3308 98.837 18.2488 99.0192 18.1212C99.1469 18.03 99.2745 17.8842 99.4021 17.6837C99.5479 17.4649 99.6482 17.0912 99.7029 16.5626C99.7211 16.435 99.7302 16.2891 99.7302 16.1251C99.7484 15.9428 99.7575 15.724 99.7575 15.4688C99.7575 15.2136 99.7575 14.9037 99.7575 14.5391C99.7575 14.1745 99.7575 13.7188 99.7575 13.1719V7.62107C99.7575 6.98304 99.7575 6.44527 99.7575 6.00777C99.7575 5.57027 99.7575 5.19656 99.7575 4.88667C99.7575 4.57677 99.7484 4.31244 99.7302 4.09369C99.7302 3.87494 99.7211 3.65619 99.7029 3.43743C99.6664 3.05462 99.5844 2.7356 99.4567 2.48039C99.3291 2.20695 99.1833 2.00643 99.0192 1.87883C98.8552 1.75122 98.6455 1.6783 98.3903 1.66007C98.1534 1.62361 97.8799 1.60539 97.57 1.60539L97.4333 1.49601L97.3513 1.00382L97.406 0.894441C97.5336 0.894441 97.7159 0.903555 97.9528 0.921784C98.208 0.940014 98.4633 0.958243 98.7185 0.976473C98.9737 0.994703 99.2198 1.01293 99.4567 1.03116C99.712 1.04939 100.331 2.48039 100.458 2.48039L100.988 1.0585C101.134 1.0585 101.334 1.04939 101.59 1.03116C101.863 1.01293 102.082 0.985587 102.246 0.949128L102.383 1.03116C102.455 1.28637 102.601 1.64184 102.82 2.09758C103.057 2.53508 103.33 3.02727 103.64 3.57415C103.969 4.12103 104.315 4.70437 104.679 5.32417C105.062 5.94397 105.445 6.55465 105.828 7.15622C107.213 9.3802 108.416 11.194 109.437 12.5977C110.476 14.0013 111.169 16.198 111.461 16.6172C111.461 16.4896 111.433 15.086 111.433 14.9766C111.452 14.8672 111.461 14.7396 111.461 14.5938C111.461 14.448 111.461 14.2657 111.461 14.0469C111.461 13.8282 111.461 13.5365 111.461 13.1719V7.62107C111.461 6.98304 111.461 6.44527 111.461 6.00777C111.461 5.57027 111.452 5.19656 111.433 4.88667C111.433 4.57677 111.424 4.31244 111.406 4.09369C111.406 3.87494 111.397 3.65619 111.379 3.43743C111.342 2.92701 111.26 2.57154 111.133 2.37102C111.005 2.17049 110.868 2.00643 110.722 1.87883C110.558 1.75122 110.34 1.6783 110.066 1.66007C109.811 1.62361 109.538 1.60539 109.246 1.60539L109.137 1.49601L109.054 1.00382L109.109 0.894441C109.237 0.894441 109.419 0.903555 109.656 0.921784C109.893 0.940014 110.13 0.958243 110.367 0.976473C110.622 0.994703 110.868 1.01293 111.105 1.03116C111.342 1.04939 111.525 1.0585 111.652 1.0585H112.937C113.065 1.0585 113.247 1.0585 113.484 1.0585C113.721 1.04028 113.967 1.02205 114.223 1.00382C114.478 0.985588 114.724 0.967358 114.961 0.949128C115.198 0.930899 115.38 0.91267 115.508 0.894441L115.535 1.00382Z" fill="#F2C94C"/>
<path d="M134.655 18.2579C133.78 18.5313 132.859 18.7592 131.893 18.9415C130.945 19.142 129.952 19.2423 128.913 19.2423C127.327 19.2423 125.941 19.0053 124.756 18.5313C123.59 18.0391 122.614 17.3738 121.831 16.5352C121.065 15.6967 120.491 14.7214 120.108 13.6094C119.725 12.4974 119.534 11.3216 119.534 10.082C119.534 8.76951 119.734 7.54815 120.135 6.41793C120.554 5.28771 121.165 4.30333 121.967 3.46478C122.769 2.62623 123.763 1.96997 124.948 1.49601C126.133 1.00382 127.509 0.757721 129.077 0.757721C129.405 0.757721 129.797 0.77595 130.253 0.812408C130.726 0.830637 131.219 0.876211 131.729 0.949128C132.24 1.02205 132.759 1.12231 133.288 1.24991C133.816 1.35929 134.318 1.50512 134.792 1.68742L134.846 1.93351L134.381 4.58588H133.616L133.506 4.50385C133.379 3.77468 132.95 3.20957 132.221 2.80852C131.51 2.40748 130.417 2.20695 128.94 2.20695C126.88 2.20695 125.312 2.63534 124.237 3.49212C123.799 3.83848 123.426 4.24864 123.116 4.7226C122.806 5.19656 122.542 5.7161 122.323 6.28121C122.122 6.84632 121.967 7.44789 121.858 8.08591C121.767 8.70571 121.721 9.32551 121.721 9.9453C121.721 11.1667 121.894 12.2604 122.241 13.2266C122.605 14.1927 123.097 15.0131 123.717 15.6875C124.337 16.3438 125.075 16.8542 125.932 17.2188C126.789 17.5652 127.719 17.7383 128.721 17.7383C129.031 17.7383 129.378 17.7292 129.76 17.711C130.161 17.6745 130.544 17.629 130.909 17.5743C131.292 17.5196 131.629 17.4558 131.92 17.3829C132.212 17.31 132.413 17.237 132.522 17.1641C132.668 17.073 132.741 16.8816 132.741 16.5899C132.741 16.4623 132.741 16.2891 132.741 16.0704C132.741 15.8516 132.741 15.6237 132.741 15.3868C132.741 15.1316 132.732 14.8855 132.713 14.6485C132.713 14.3933 132.704 14.1745 132.686 13.9922C132.65 13.5183 132.549 13.1628 132.385 12.9258C132.24 12.6706 132.112 12.5065 132.003 12.4336C131.838 12.306 131.592 12.2331 131.264 12.2149C130.936 12.1784 130.626 12.1602 130.335 12.1602L130.198 12.0508L130.116 11.4492L130.17 11.3399C130.298 11.3399 130.499 11.349 130.772 11.3672C131.064 11.3854 131.355 11.4037 131.647 11.4219C131.957 11.4401 132.249 11.4583 132.522 11.4766C132.814 11.4948 133.023 11.5039 133.151 11.5039H133.971C134.099 11.5039 134.272 11.4948 134.491 11.4766C134.71 11.4583 134.937 11.4401 135.174 11.4219C135.411 11.4037 135.639 11.3854 135.858 11.3672C136.077 11.349 136.25 11.3399 136.378 11.3399L136.432 11.4492L136.378 12.1055L136.241 12.2149C135.712 12.2149 135.338 12.3698 135.12 12.6797C134.919 12.9714 134.801 13.4089 134.764 13.9922C134.728 14.448 134.7 14.9401 134.682 15.4688C134.682 15.9792 134.682 16.362 134.682 16.6172C134.682 16.8907 134.682 17.1915 134.682 17.5196C134.7 17.8295 134.728 18.03 134.764 18.1212L134.655 18.2579Z" fill="#F2C94C"/>
<path d="M154.822 19.1055C154.694 19.1055 154.484 19.0964 154.193 19.0782C153.901 19.06 153.6 19.0417 153.29 19.0235C152.981 19.0053 152.68 18.9871 152.388 18.9688C152.096 18.9506 151.887 18.9415 151.759 18.9415H151.24C151.112 18.9415 150.902 18.9506 150.611 18.9688C150.319 18.9871 150.018 19.0053 149.708 19.0235C149.398 19.0417 149.098 19.06 148.806 19.0782C148.514 19.0964 148.305 19.1055 148.177 19.1055L148.122 18.9962L148.204 18.504L148.341 18.3946C148.56 18.3946 148.815 18.3855 149.107 18.3673C149.398 18.3308 149.626 18.2579 149.79 18.1485C149.936 18.0391 150.073 17.866 150.201 17.629C150.328 17.392 150.419 17.0365 150.474 16.5626C150.474 16.435 150.474 16.2891 150.474 16.1251C150.492 15.9428 150.501 15.724 150.501 15.4688C150.52 15.2136 150.529 14.9037 150.529 14.5391C150.529 14.1745 150.529 13.7188 150.529 13.1719V6.06246C150.529 5.69787 150.529 5.28771 150.529 4.83198C150.529 4.35801 150.51 3.89317 150.474 3.43743C150.438 2.96347 150.346 2.61711 150.201 2.39836C150.073 2.17961 149.936 2.00643 149.79 1.87883C149.626 1.78768 149.453 1.72388 149.271 1.68742C149.107 1.63273 148.797 1.60539 148.341 1.60539L148.204 1.49601L148.122 1.00382L148.177 0.894441C148.305 0.894441 148.469 0.903555 148.669 0.921784C148.888 0.940014 149.107 0.958243 149.326 0.976473C149.563 0.994703 149.8 1.01293 150.037 1.03116C150.274 1.04939 150.492 1.0585 150.693 1.0585H151.677C151.878 1.0585 152.106 1.0585 152.361 1.0585C152.616 1.0585 152.871 1.0585 153.126 1.0585C153.4 1.04028 153.646 1.03116 153.865 1.03116C154.083 1.03116 154.266 1.03116 154.412 1.03116C155.633 1.03116 156.663 1.14965 157.501 1.38663C158.358 1.62361 159.051 1.96086 159.58 2.39836C160.108 2.83587 160.491 3.36452 160.728 3.98431C160.983 4.58588 161.111 5.25125 161.111 5.98042C161.111 7.03773 160.892 7.91274 160.455 8.60545C160.017 9.27994 159.452 9.8177 158.759 10.2187C158.085 10.6016 157.319 10.8659 156.462 11.0117C155.624 11.1576 154.803 11.2305 154.001 11.2305H152.47C152.47 11.7227 152.47 12.2422 152.47 12.7891C152.47 13.336 152.47 13.8555 152.47 14.3477C152.488 14.8399 152.497 15.2865 152.497 15.6875C152.516 16.0886 152.534 16.3803 152.552 16.5626C152.589 17.0912 152.68 17.4649 152.826 17.6837C152.971 17.8842 153.099 18.03 153.208 18.1212C153.372 18.2123 153.537 18.2852 153.701 18.3399C153.883 18.3764 154.211 18.3946 154.685 18.3946L154.794 18.504L154.876 18.9962L154.822 19.1055ZM154.958 10.0273C156.49 10.0273 157.583 9.68098 158.24 8.98827C158.896 8.29555 159.224 7.33851 159.224 6.11715C159.224 4.85932 158.841 3.92051 158.076 3.30071C157.328 2.68092 156.298 2.37102 154.986 2.37102H152.607C152.57 2.89967 152.543 3.34629 152.525 3.71087C152.525 4.07546 152.516 4.39447 152.497 4.66791C152.479 4.94135 152.47 5.18745 152.47 5.4062C152.47 5.62495 152.47 5.83459 152.47 6.03511V9.01561C152.47 9.25259 152.479 9.444 152.497 9.58983C152.516 9.71744 152.561 9.8177 152.634 9.89062C152.707 9.94531 152.807 9.98176 152.935 9.99999C153.081 10.0182 153.272 10.0273 153.509 10.0273H154.958Z" fill="#F2C94C"/>
<path d="M171.524 1.00382L171.442 1.49601L171.333 1.60539C171.041 1.60539 170.759 1.62361 170.485 1.66007C170.23 1.6783 170.02 1.75122 169.856 1.87883C169.71 2.00643 169.574 2.17049 169.446 2.37102C169.318 2.57154 169.236 2.92701 169.2 3.43743C169.182 3.69264 169.164 3.92963 169.145 4.14838C169.145 4.36713 169.136 4.62234 169.118 4.91401C169.118 5.20568 169.118 5.56115 169.118 5.98042C169.118 6.3997 169.118 6.93747 169.118 7.59372V12.625C169.118 13.2813 169.118 13.819 169.118 14.2383C169.118 14.6394 169.118 14.9766 169.118 15.25C169.136 15.5235 169.145 15.7605 169.145 15.961C169.164 16.1433 169.182 16.3438 169.2 16.5626C169.236 17.073 169.318 17.4284 169.446 17.629C169.574 17.8295 169.71 17.9936 169.856 18.1212C170.02 18.2488 170.23 18.3308 170.485 18.3673C170.759 18.3855 171.041 18.3946 171.333 18.3946L171.442 18.504L171.524 18.9962L171.47 19.1055C171.342 19.1055 171.132 19.0964 170.841 19.0782C170.549 19.06 170.248 19.0417 169.938 19.0235C169.628 19.0053 169.328 18.9871 169.036 18.9688C168.744 18.9506 168.535 18.9415 168.407 18.9415H167.887C167.76 18.9415 167.55 18.9506 167.259 18.9688C166.967 18.9871 166.666 19.0053 166.356 19.0235C166.046 19.0417 165.746 19.06 165.454 19.0782C165.162 19.0964 164.953 19.1055 164.825 19.1055L164.77 18.9962L164.852 18.504L164.989 18.3946C165.281 18.3946 165.554 18.3855 165.809 18.3673C166.065 18.3308 166.274 18.2488 166.438 18.1212C166.584 17.9936 166.721 17.8295 166.848 17.629C166.994 17.4284 167.085 17.073 167.122 16.5626C167.122 16.435 167.122 16.2891 167.122 16.1251C167.14 15.9428 167.149 15.724 167.149 15.4688C167.167 15.2136 167.177 14.9037 167.177 14.5391C167.177 14.1745 167.177 13.7188 167.177 13.1719V7.62107C167.177 6.98304 167.177 6.44527 167.177 6.00777C167.177 5.57027 167.167 5.19656 167.149 4.88667C167.149 4.57677 167.14 4.31244 167.122 4.09369C167.122 3.87494 167.113 3.65619 167.094 3.43743C167.058 2.96347 166.976 2.61711 166.848 2.39836C166.721 2.17961 166.584 2.00643 166.438 1.87883C166.274 1.75122 166.065 1.6783 165.809 1.66007C165.554 1.62361 165.281 1.60539 164.989 1.60539L164.852 1.49601L164.77 1.00382L164.825 0.894441C164.953 0.894441 165.162 0.903555 165.454 0.921784C165.746 0.940014 166.046 0.958243 166.356 0.976473C166.666 0.994703 166.967 1.01293 167.259 1.03116C167.55 1.04939 167.76 1.0585 167.887 1.0585H168.407C168.535 1.0585 168.744 1.04939 169.036 1.03116C169.328 1.01293 169.628 0.994703 169.938 0.976473C170.248 0.958243 170.549 0.940014 170.841 0.921784C171.132 0.903555 171.342 0.894441 171.47 0.894441L171.524 1.00382Z" fill="#F2C94C"/>
<path d="M175.872 4.01166L176.31 1.0585L176.528 0.839752C178.843 0.949129 180.776 1.01293 182.325 1.03116C183.893 1.04939 184.914 1.0585 185.388 1.0585H187.193C187.302 1.0585 187.448 1.0585 187.63 1.0585C187.831 1.04028 188.031 1.02205 188.232 1.00382C188.45 0.985588 188.66 0.967358 188.861 0.949128C189.079 0.91267 189.271 0.876211 189.435 0.839752L189.653 1.14054L189.517 1.82414C189.189 2.17049 188.715 2.74472 188.095 3.54681C187.475 4.3489 186.791 5.26948 186.044 6.30855C185.297 7.3294 184.531 8.42316 183.747 9.58983C182.963 10.7565 182.234 11.8685 181.56 12.9258C180.885 13.9649 180.311 14.9037 179.837 15.7422C179.363 16.5626 179.062 17.1641 178.935 17.5469L179.071 17.629H181.259C182.881 17.629 184.176 17.6199 185.142 17.6016C186.108 17.5652 186.855 17.474 187.384 17.3282C187.913 17.1824 188.286 16.9727 188.505 16.6993C188.724 16.4076 188.897 15.9974 189.025 15.4688L189.189 15.3047H189.927L189.435 18.8321L189.189 19.1055C189.116 19.1055 188.924 19.0964 188.614 19.0782C188.305 19.0782 187.94 19.0691 187.521 19.0509C187.101 19.0326 186.646 19.0144 186.153 18.9962C185.679 18.9962 185.215 18.9871 184.759 18.9688C184.321 18.9688 183.92 18.9597 183.556 18.9415C183.209 18.9415 182.954 18.9415 182.79 18.9415H178.415C178.014 18.9415 177.558 18.9597 177.048 18.9962C176.556 19.0326 176.073 19.0691 175.599 19.1055L175.325 18.8048V18.1759C175.69 17.8113 176.164 17.2553 176.747 16.5079C177.349 15.7605 177.996 14.9037 178.689 13.9375C179.381 12.9714 180.092 11.9414 180.821 10.8477C181.551 9.7539 182.243 8.68748 182.9 7.64841C183.556 6.60934 184.139 5.64318 184.65 4.74994C185.178 3.83848 185.57 3.09108 185.825 2.50774L185.689 2.37102H181.806C180.785 2.37102 179.955 2.38925 179.317 2.4257C178.698 2.44393 178.205 2.50774 177.841 2.61711C177.476 2.72649 177.212 2.89967 177.048 3.13665C176.884 3.3554 176.765 3.6653 176.692 4.06635L176.528 4.20307H176.036L175.872 4.01166Z" fill="#F2C94C"/>
<path d="M194.309 4.01166L194.747 1.0585L194.965 0.839752C197.28 0.949129 199.213 1.01293 200.762 1.03116C202.33 1.04939 203.351 1.0585 203.825 1.0585H205.629C205.739 1.0585 205.885 1.0585 206.067 1.0585C206.267 1.04028 206.468 1.02205 206.669 1.00382C206.887 0.985588 207.097 0.967358 207.297 0.949128C207.516 0.91267 207.708 0.876211 207.872 0.839752L208.09 1.14054L207.954 1.82414C207.626 2.17049 207.152 2.74472 206.532 3.54681C205.912 4.3489 205.228 5.26948 204.481 6.30855C203.734 7.3294 202.968 8.42316 202.184 9.58983C201.4 10.7565 200.671 11.8685 199.997 12.9258C199.322 13.9649 198.748 14.9037 198.274 15.7422C197.8 16.5626 197.499 17.1641 197.372 17.5469L197.508 17.629H199.696C201.318 17.629 202.612 17.6199 203.579 17.6016C204.545 17.5652 205.292 17.474 205.821 17.3282C206.35 17.1824 206.723 16.9727 206.942 16.6993C207.161 16.4076 207.334 15.9974 207.461 15.4688L207.626 15.3047H208.364L207.872 18.8321L207.626 19.1055C207.553 19.1055 207.361 19.0964 207.051 19.0782C206.741 19.0782 206.377 19.0691 205.958 19.0509C205.538 19.0326 205.083 19.0144 204.59 18.9962C204.116 18.9962 203.652 18.9871 203.196 18.9688C202.758 18.9688 202.357 18.9597 201.993 18.9415C201.646 18.9415 201.391 18.9415 201.227 18.9415H196.852C196.451 18.9415 195.995 18.9597 195.485 18.9962C194.993 19.0326 194.51 19.0691 194.036 19.1055L193.762 18.8048V18.1759C194.127 17.8113 194.601 17.2553 195.184 16.5079C195.786 15.7605 196.433 14.9037 197.125 13.9375C197.818 12.9714 198.529 11.9414 199.258 10.8477C199.987 9.7539 200.68 8.68748 201.336 7.64841C201.993 6.60934 202.576 5.64318 203.086 4.74994C203.615 3.83848 204.007 3.09108 204.262 2.50774L204.126 2.37102H200.243C199.222 2.37102 198.392 2.38925 197.754 2.4257C197.135 2.44393 196.642 2.50774 196.278 2.61711C195.913 2.72649 195.649 2.89967 195.485 3.13665C195.321 3.3554 195.202 3.6653 195.129 4.06635L194.965 4.20307H194.473L194.309 4.01166Z" fill="#F2C94C"/>
<path d="M221.387 0.757721L225.871 13.1719C226.053 13.7188 226.208 14.1745 226.336 14.5391C226.482 14.9037 226.6 15.2136 226.691 15.4688C226.801 15.724 226.892 15.9428 226.965 16.1251C227.038 16.2891 227.102 16.435 227.156 16.5626C227.357 17.0183 227.557 17.3738 227.758 17.629C227.977 17.866 228.195 18.0482 228.414 18.1759C228.633 18.2852 228.852 18.349 229.07 18.3673C229.307 18.3855 229.544 18.3946 229.781 18.3946L229.918 18.504L230 18.9962L229.945 19.1055C229.818 19.1055 229.626 19.0964 229.371 19.0782C229.116 19.06 228.852 19.0417 228.578 19.0235C228.305 19.0053 228.04 18.9871 227.785 18.9688C227.548 18.9506 227.366 18.9415 227.238 18.9415H226.336C226.208 18.9415 225.999 18.9506 225.707 18.9688C225.415 18.9871 225.105 19.0053 224.777 19.0235C224.467 19.0417 224.167 19.06 223.875 19.0782C223.583 19.0964 223.374 19.1055 223.246 19.1055L223.191 18.9962L223.273 18.504L223.383 18.3946C223.911 18.3946 224.322 18.3399 224.613 18.2305C224.905 18.1029 225.051 17.7748 225.051 17.2462C225.051 16.8269 224.905 16.2435 224.613 15.4961C224.34 14.7305 223.993 13.7735 223.574 12.625L223.109 11.3125H216.984L216.519 12.625C216.1 13.7735 215.745 14.7305 215.453 15.4961C215.18 16.2435 215.043 16.8269 215.043 17.2462C215.043 17.7748 215.189 18.1029 215.48 18.2305C215.772 18.3399 216.182 18.3946 216.711 18.3946L216.848 18.504L216.93 18.9962L216.875 19.1055C216.747 19.1055 216.547 19.0964 216.273 19.0782C216 19.06 215.708 19.0417 215.398 19.0235C215.107 19.0053 214.824 18.9871 214.551 18.9688C214.277 18.9506 214.077 18.9415 213.949 18.9415H213.43C213.302 18.9415 213.111 18.9506 212.855 18.9688C212.6 18.9871 212.336 19.0053 212.062 19.0235C211.789 19.0417 211.525 19.06 211.269 19.0782C211.032 19.0964 210.85 19.1055 210.722 19.1055L210.695 18.9962L210.75 18.504L210.887 18.3946C211.124 18.3946 211.351 18.3855 211.57 18.3673C211.789 18.349 212.008 18.2852 212.226 18.1759C212.445 18.0482 212.655 17.866 212.855 17.629C213.074 17.3738 213.293 17.0183 213.512 16.5626C213.566 16.4714 213.612 16.3711 213.648 16.2618C213.703 16.1342 213.776 15.9519 213.867 15.7149C213.976 15.4779 214.104 15.168 214.25 14.7852C214.414 14.3841 214.614 13.8737 214.851 13.2539C215.107 12.6159 215.407 11.8412 215.754 10.9297C216.118 10.0182 216.556 8.91535 217.066 7.62107C217.303 6.98304 217.549 6.35413 217.805 5.73433C218.06 5.0963 218.297 4.50385 218.516 3.95697C218.734 3.41009 218.926 2.92701 219.09 2.50774C219.272 2.08846 219.4 1.77856 219.473 1.57804L221.086 0.757721H221.387ZM217.449 10.1367H222.672L220.074 3.1093L217.449 10.1367Z" fill="#F2C94C"/>
</svg>
